<svg xmlns="http://www.w3.org/2000/svg" viewBox="0 0 64 64" id="jack-card">
  <path d="M30.04541,28.35791a2.03369,2.03369,0,1,0-2.03369,2.03369A2.03574,2.03574,0,0,0,30.04541,28.35791ZM28.01172,29.3916a1.03369,1.03369,0,1,1,1.03369-1.03369A1.03506,1.03506,0,0,1,28.01172,29.3916Zm8.16406-3.27344a2.0337,2.0337,0,1,0,2.03369,2.0337A2.03574,2.03574,0,0,0,36.17578,26.11816Zm0,3.06739a1.0337,1.0337,0,1,1,1.03369-1.03369A1.03506,1.03506,0,0,1,36.17578,29.18555ZM50.99365,50.38916a11.822,11.822,0,0,0-11.61328-9.32275H36.74725A11.20237,11.20237,0,0,0,42.30566,35.508v.97784a2.60485,2.60485,0,0,0,2.40363,2.589,3.47383,3.47383,0,0,0,6.34637-1.95569,2.70356,2.70356,0,0,0-2.74511-2.70264l-.73877.01123.01562,1,.73877-.01123a1.66659,1.66659,0,0,1,1.22119.48926,1.69069,1.69069,0,0,1,.5083,1.21338,2.47607,2.47607,0,0,1-4.95214,0V31.32477a2.07415,2.07415,0,0,0,1.79834-2.04938v-6.4259L50.30908,7.106a.50014.50014,0,0,0-.48877-.606H14.49658a.50014.50014,0,0,0-.48877.606L17.415,22.84949v6.4259a2.07411,2.07411,0,0,0,1.79785,2.04932v5.79443a2.47583,2.47583,0,1,1-4.95166,0,1.68986,1.68986,0,0,1,.5083-1.21338,1.72646,1.72646,0,0,1,1.2207-.48926l.73877.01123.01563-1-.73877-.01123a2.61475,2.61475,0,0,0-1.938.77637,2.68426,2.68426,0,0,0-.80664,1.92627,3.47351,3.47351,0,0,0,6.34589,1.95569,2.60485,2.60485,0,0,0,2.40362-2.589V35.508a11.20241,11.20241,0,0,0,5.55841,5.55841H24.61963a11.822,11.822,0,0,0-11.61328,9.32275l-1.44043,6.50293A.4998.4998,0,0,0,12.0542,57.5H51.9458a.4998.4998,0,0,0,.48828-.60791Zm-30.38183-.00244,3.6958,2.165-3.6958,2.165-3.6958-2.165Zm0-1.15918-3.6958-2.165,3.6958-2.165,3.6958,2.165Zm5.27539-7.16113h.75952a5.01153,5.01153,0,0,0,9.97851,0H38.126V56.5H25.88721Zm17.51416,8.32031,3.6958,2.165-3.6958,2.165-3.6958-2.165Zm0-1.15918-3.6958-2.165,3.6958-2.165,3.6958,2.165Zm-.09571-12.7417V31.04279a2.05535,2.05535,0,0,0,.79786.28192v5.79443a3.44556,3.44556,0,0,0,.10357.80505A1.60657,1.60657,0,0,1,43.30566,36.48584ZM21.51074,22.29541H18.31836l-.48187-2.22656H46.48041l-.48187,2.22656H21.51074ZM24.398,12.71582,20.11865,10.209,24.398,7.70215,28.67773,10.209Zm0,1.15918,4.27978,2.50684L24.398,18.88867l-4.2793-2.50683Zm15.51269,0,4.27979,2.50684-4.27979,2.50683-4.27929-2.50683Zm0-1.15918L35.63135,10.209l4.27929-2.50683L44.19043,10.209ZM20.10931,37.92419a3.445,3.445,0,0,0,.10358-.80505V31.32471a2.05392,2.05392,0,0,0,.79785-.28186v5.443A1.60655,1.60655,0,0,1,20.10931,37.92419ZM22.01074,30.919V23.29541H42.30566V30.919a10.14746,10.14746,0,1,1-20.29492,0Zm13.6145,11.14746a4.01782,4.01782,0,0,1-7.97851,0ZM13.98291,50.605a10.99868,10.99868,0,0,1,1.354-3.36066V56.5H12.67725ZM48.67627,56.5V47.26752A10.99835,10.99835,0,0,1,50.01709,50.605L51.32275,56.5ZM34.30078,34.94287h1a3.30078,3.30078,0,1,1-6.60156,0h1a2.30078,2.30078,0,1,0,4.60156,0Z"></path>
</svg>
